<?xml version="1.0" standalone="no"?>
<!DOCTYPE svg PUBLIC "-//W3C//DTD SVG 20010904//EN"
 "http://www.w3.org/TR/2001/REC-SVG-20010904/DTD/svg10.dtd">
<svg version="1.0" xmlns="http://www.w3.org/2000/svg"
 width="314.000000pt" height="314.000000pt" viewBox="0 0 314.000000 314.000000"
 preserveAspectRatio="xMidYMid meet">
<metadata>
Created by potrace 1.11, written by Peter Selinger 2001-2013
</metadata>
<g transform="translate(0.000000,314.000000) scale(0.100000,-0.100000)"
fill="#000000" stroke="none">
<path d="M1438 3039 c11 -15 9 -17 -20 -16 -31 0 -119 -15 -178 -29 -14 -4
-37 -7 -52 -8 -14 0 -25 -3 -22 -5 6 -6 -130 -50 -138 -44 -5 2 -8 -1 -8 -6 0
-6 -7 -11 -15 -11 -8 0 -15 -5 -15 -12 0 -6 -3 -9 -6 -5 -7 7 -145 -61 -155
-76 -4 -5 -12 -6 -19 -2 -9 5 -11 4 -6 -3 4 -7 1 -12 -8 -12 -9 0 -16 -4 -16
-10 0 -5 -4 -10 -10 -10 -5 0 -35 -19 -66 -42 -32 -24 -61 -42 -66 -40 -4 1
-8 -3 -8 -9 0 -7 -10 -20 -23 -31 -53 -46 -95 -88 -136 -136 -25 -28 -49 -48
-54 -45 -6 3 -7 1 -3 -6 4 -6 1 -18 -6 -26 -24 -26 -34 -40 -41 -55 -18 -37
-77 -125 -83 -122 -3 2 -9 0 -12 -4 -4 -4 -1 -4 7 1 7 4 12 4 9 -1 -2 -5 -15
-31 -27 -59 -13 -27 -27 -52 -30 -55 -3 -3 -7 -9 -8 -15 -9 -38 -31 -84 -38
-78 -4 5 -5 2 -1 -5 5 -7 3 -25 -2 -40 -22 -59 -25 -68 -28 -91 -2 -13 -6 -31
-10 -40 -4 -9 -9 -34 -11 -56 -2 -22 -8 -57 -13 -77 -4 -21 -9 -95 -9 -165 -1
-69 -4 -130 -7 -135 -3 -4 -1 -8 4 -8 6 0 9 -18 8 -40 0 -22 1 -40 4 -40 3 0
7 -15 8 -32 1 -18 14 -76 28 -128 14 -52 26 -102 28 -110 1 -9 5 -21 10 -28 4
-6 4 -18 0 -24 -4 -7 -3 -10 1 -5 10 9 37 -51 29 -64 -3 -5 -1 -9 4 -9 5 0 26
-35 48 -77 21 -43 41 -80 44 -83 9 -8 83 -118 101 -150 9 -16 19 -27 22 -24 2
3 15 -10 28 -28 13 -18 40 -48 61 -67 21 -18 35 -38 31 -44 -3 -5 -1 -7 4 -4
6 4 33 -15 61 -41 28 -26 57 -48 64 -50 7 -2 15 -7 18 -11 8 -13 139 -94 197
-123 29 -14 49 -29 45 -33 -4 -3 -2 -6 3 -5 25 5 46 -1 39 -12 -4 -6 -3 -8 4
-4 6 3 23 1 39 -6 34 -14 31 -13 68 -23 17 -4 35 -10 40 -14 6 -3 12 -6 15 -6
28 -3 130 -29 130 -34 0 -13 402 -24 453 -12 26 6 37 6 37 -3 0 -6 4 -5 9 3 6
8 20 12 39 9 18 -3 29 0 25 5 -4 6 5 8 20 5 15 -3 24 -2 22 2 -5 7 109 36 132
34 7 -1 10 3 6 9 -4 6 2 8 15 5 12 -4 20 -2 16 3 -3 5 1 9 9 9 8 0 53 18 101
40 48 22 92 38 97 34 5 -3 8 -2 7 3 -2 4 0 9 5 10 4 2 17 12 29 23 12 11 30
20 40 20 11 0 17 4 14 9 -7 11 22 23 35 15 5 -3 8 -1 7 4 -2 6 20 27 47 48 85
65 157 134 235 226 18 21 37 35 43 31 6 -3 7 -1 3 5 -3 6 21 51 54 99 33 48
60 94 60 101 0 6 5 12 10 12 6 0 9 6 8 13 -2 6 2 11 9 10 7 -2 10 3 7 10 -2 7
6 35 19 62 14 28 30 67 37 87 8 20 16 35 19 33 3 -1 7 13 8 33 1 19 5 38 10
41 4 3 9 13 9 21 3 28 9 45 19 52 6 5 6 8 -2 8 -8 0 -9 9 -3 33 16 58 22 92
22 122 0 17 5 33 12 37 6 4 7 8 1 8 -6 0 -10 57 -9 153 0 83 -2 157 -6 162 -4
6 -7 24 -7 41 0 16 -2 34 -5 40 -6 9 -23 87 -20 91 2 3 -32 99 -46 133 -3 8
-6 20 -7 25 0 6 -11 31 -24 57 -12 26 -19 53 -15 59 4 7 3 9 -3 6 -13 -8 -37
38 -28 54 5 8 4 10 -4 5 -6 -4 -14 0 -18 11 -3 10 -23 43 -44 74 -21 31 -36
59 -34 63 3 3 2 4 -2 1 -7 -6 -59 66 -55 77 1 5 -4 7 -11 5 -7 -1 -11 7 -9 23
1 19 0 22 -8 10 -8 -13 -11 -12 -24 5 -8 11 -12 24 -9 29 4 5 1 6 -4 3 -13 -8
-36 17 -25 28 4 5 2 5 -4 2 -7 -4 -30 13 -53 38 -22 24 -41 42 -41 39 0 -5
-17 8 -53 41 -12 12 -30 24 -40 28 -9 3 -17 11 -17 17 0 5 -5 10 -10 10 -6 0
-34 15 -63 33 -29 18 -64 39 -79 46 -16 8 -28 18 -28 23 0 5 -4 7 -10 3 -12
-7 -82 30 -73 39 4 4 1 4 -8 1 -8 -3 -33 2 -55 12 -21 9 -41 17 -44 18 -3 1
-25 7 -50 15 -76 23 -99 28 -123 29 -10 1 -16 5 -13 10 3 4 -6 6 -20 3 -16 -3
-30 1 -35 9 -5 8 -9 9 -9 4 0 -7 -15 -9 -35 -7 -22 3 -33 8 -28 16 4 7 2 8 -5
1 -7 -6 -55 -8 -122 -5 -62 3 -117 2 -123 -2 -6 -4 -21 1 -32 10 -17 15 -18
15 -7 1z"/>
</g>
</svg>
